HIERARCHY
ROOT Root
{
  OFFSET 0.0 0.0 0.0
  CHANNELS 6 Xposition Yposition Zposition Zrotation Yrotation Xrotation
  JOINT Hips
  {
    OFFSET 0.0 100.0 0.0
    CHANNELS 6 Xposition Yposition Zposition Zrotation Yrotation Xrotation
    JOINT Spine1
    {
      OFFSET -0.013727 5.003763 -0.053727
      CHANNELS 3 Zrotation Yrotation Xrotation
      JOINT Spine2
      {
        OFFSET -0.0 7.125301 -0.029825
        CHANNELS 3 Zrotation Yrotation Xrotation
        JOINT Chest
        {
          OFFSET -1e-06 7.550063 -0.815971
          CHANNELS 3 Zrotation Yrotation Xrotation
          JOINT Neck1
          {
            OFFSET -0.181677 26.311295 -0.553348
            CHANNELS 3 Zrotation Yrotation Xrotation
            JOINT Neck2
            {
              OFFSET -3e-06 7.709397 2.302585
              CHANNELS 3 Zrotation Yrotation Xrotation
              JOINT Head
              {
                OFFSET -5e-06 6.128916 1.953709
                CHANNELS 3 Zrotation Yrotation Xrotation
                JOINT HeadEnd
                {
                  OFFSET 0.003598 16.065403 -1.835379
                  CHANNELS 3 Zrotation Yrotation Xrotation
                }
                JOINT Jaw
                {
                  OFFSET 0.002637 0.475592 3.094941
                  CHANNELS 3 Zrotation Yrotation Xrotation
                }
                JOINT LeftEye
                {
                  OFFSET 3.206381 5.380205 7.586883
                  CHANNELS 3 Zrotation Yrotation Xrotation
                }
                JOINT RightEye
                {
                  OFFSET -3.22244 5.361869 7.558234
                  CHANNELS 3 Zrotation Yrotation Xrotation
                }
              }
            }
          }
          JOINT LeftShoulder
          {
            OFFSET 1.621652 23.237164 5.113413
            CHANNELS 3 Zrotation Yrotation Xrotation
            JOINT LeftArm
            {
              OFFSET 14.919846 2e-06 -5.502326
              CHANNELS 3 Zrotation Yrotation Xrotation
              JOINT LeftForeArm
              {
                OFFSET 28.739307 0.0 -0.002588
                CHANNELS 3 Zrotation Yrotation Xrotation
                JOINT LeftHand
                {
                  OFFSET 27.093981 -1e-06 0.002609
                  CHANNELS 3 Zrotation Yrotation Xrotation
                  JOINT LeftHandThumb1
                  {
                    OFFSET 2.276482 -1.392045 3.191413
                    CHANNELS 3 Zrotation Yrotation Xrotation
                    JOINT LeftHandThumb2
                    {
                      OFFSET 4.012836 -1.828127 1.641654
                      CHANNELS 3 Zrotation Yrotation Xrotation
                      JOINT LeftHandThumb3
                      {
                        OFFSET 2.798515 0.0 -3e-06
                        CHANNELS 3 Zrotation Yrotation Xrotation
                        JOINT LeftHandThumbEnd
                        {
                          OFFSET 3.180793 -4e-06 4e-06
                          CHANNELS 3 Zrotation Yrotation Xrotation
                        }
                      }
                    }
                  }
                  JOINT LeftHandIndex1
                  {
                    OFFSET 3.247555 -0.531998 2.296169
                    CHANNELS 3 Zrotation Yrotation Xrotation
                    JOINT LeftHandIndex2
                    {
                      OFFSET 6.364578 0.01206 0.1786
                      CHANNELS 3 Zrotation Yrotation Xrotation
                      JOINT LeftHandIndex3
                      {
                        OFFSET 3.662364 0.0 0.0
                        CHANNELS 3 Zrotation Yrotation Xrotation
                        JOINT LeftHandIndex4
                        {
                          OFFSET 2.329242 4e-06 4e-06
                          CHANNELS 3 Zrotation Yrotation Xrotation
                          JOINT LeftHandIndexEnd
                          {
                            OFFSET 2.759615 -0.180537 -0.113024
                            CHANNELS 3 Zrotation Yrotation Xrotation
                          }
                        }
                      }
                    }
                  }
                  JOINT LeftHandMiddle1
                  {
                    OFFSET 3.163495 0.240981 1.000332
                    CHANNELS 3 Zrotation Yrotation Xrotation
                    JOINT LeftHandMiddle2
                    {
                      OFFSET 6.19078 -0.259278 -1.002548
                      CHANNELS 3 Zrotation Yrotation Xrotation
                      JOINT LeftHandMiddle3
                      {
                        OFFSET 4.35652 -4e-06 -1e-06
                        CHANNELS 3 Zrotation Yrotation Xrotation
                        JOINT LeftHandMiddle4
                        {
                          OFFSET 2.996877 -8e-06 0.0
                          CHANNELS 3 Zrotation Yrotation Xrotation
                          JOINT LeftHandMiddleEnd
                          {
                            OFFSET 2.304287 -0.294569 -0.031741
                            CHANNELS 3 Zrotation Yrotation Xrotation
                          }
                        }
                      }
                    }
                  }
                  JOINT LeftHandRing1
                  {
                    OFFSET 2.882643 -0.053652 -0.322543
                    CHANNELS 3 Zrotation Yrotation Xrotation
                    JOINT LeftHandRing2
                    {
                      OFFSET 5.854541 -0.486202 -1.373841
                      CHANNELS 3 Zrotation Yrotation Xrotation
                      JOINT LeftHandRing3
                      {
                        OFFSET 4.350578 0.0 3e-06
                        CHANNELS 3 Zrotation Yrotation Xrotation
                        JOINT LeftHandRing4
                        {
                          OFFSET 2.651321 7e-06 2e-06
                          CHANNELS 3 Zrotation Yrotation Xrotation
                          JOINT LeftHandRingEnd
                          {
                            OFFSET 1.936105 0.077687 -7.1e-05
                            CHANNELS 3 Zrotation Yrotation Xrotation
                          }
                        }
                      }
                    }
                  }
                  JOINT LeftHandPinky1
                  {
                    OFFSET 2.8655 -0.310005 -1.600378
                    CHANNELS 3 Zrotation Yrotation Xrotation
                    JOINT LeftHandPinky2
                    {
                      OFFSET 5.087849 -1.331141 -1.77123
                      CHANNELS 3 Zrotation Yrotation Xrotation
                      JOINT LeftHandPinky3
                      {
                        OFFSET 3.070974 4e-06 0.0
                        CHANNELS 3 Zrotation Yrotation Xrotation
                        JOINT LeftHandPinky4
                        {
                          OFFSET 1.549672 0.0 1e-06
                          CHANNELS 3 Zrotation Yrotation Xrotation
                          JOINT LeftHandPinkyEnd
                          {
                            OFFSET 1.944893 -0.157802 0.057219
                            CHANNELS 3 Zrotation Yrotation Xrotation
                          }
                        }
                      }
                    }
                  }
                }
              }
            }
          }
          JOINT RightShoulder
          {
            OFFSET -1.380118 23.180309 5.214158
            CHANNELS 3 Zrotation Yrotation Xrotation
            JOINT RightArm
            {
              OFFSET -15.037196 1.2e-05 -5.545604
              CHANNELS 3 Zrotation Yrotation Xrotation
              JOINT RightForeArm
              {
                OFFSET -28.736639 2e-06 -0.002597
                CHANNELS 3 Zrotation Yrotation Xrotation
                JOINT RightHand
                {
                  OFFSET -27.133619 -0.0 0.002613
                  CHANNELS 3 Zrotation Yrotation Xrotation
                  JOINT RightHandThumb1
                  {
                    OFFSET -2.274032 -1.383988 3.163127
                    CHANNELS 3 Zrotation Yrotation Xrotation
                    JOINT RightHandThumb2
                    {
                      OFFSET -4.011429 -1.827466 1.640914
                      CHANNELS 3 Zrotation Yrotation Xrotation
                      JOINT RightHandThumb3
                      {
                        OFFSET -2.794935 -4e-06 -3e-06
                        CHANNELS 3 Zrotation Yrotation Xrotation
                        JOINT RightHandThumbEnd
                        {
                          OFFSET -3.183852 4e-06 1e-06
                          CHANNELS 3 Zrotation Yrotation Xrotation
                        }
                      }
                    }
                  }
                  JOINT RightHandIndex1
                  {
                    OFFSET -3.253266 -0.520057 2.282866
                    CHANNELS 3 Zrotation Yrotation Xrotation
                    JOINT RightHandIndex2
                    {
                      OFFSET -6.341917 0.012471 0.178266
                      CHANNELS 3 Zrotation Yrotation Xrotation
                      JOINT RightHandIndex3
                      {
                        OFFSET -3.654871 -8e-06 -0.0
                        CHANNELS 3 Zrotation Yrotation Xrotation
                        JOINT RightHandIndex4
                        {
                          OFFSET -2.327586 0.0 1e-06
                          CHANNELS 3 Zrotation Yrotation Xrotation
                          JOINT RightHandIndexEnd
                          {
                            OFFSET -2.76179 -0.180656 -0.113078
                            CHANNELS 3 Zrotation Yrotation Xrotation
                          }
                        }
                      }
                    }
                  }
                  JOINT RightHandMiddle1
                  {
                    OFFSET -3.168106 0.246593 1.00103
                    CHANNELS 3 Zrotation Yrotation Xrotation
                    JOINT RightHandMiddle2
                    {
                      OFFSET -6.180828 -0.258836 -1.000895
                      CHANNELS 3 Zrotation Yrotation Xrotation
                      JOINT RightHandMiddle3
                      {
                        OFFSET -4.348901 0.0 -0.0
                        CHANNELS 3 Zrotation Yrotation Xrotation
                        JOINT RightHandMiddle4
                        {
                          OFFSET -3.00024 -4e-06 -2e-06
                          CHANNELS 3 Zrotation Yrotation Xrotation
                          JOINT RightHandMiddleEnd
                          {
                            OFFSET -2.30252 -0.29437 -0.031706
                            CHANNELS 3 Zrotation Yrotation Xrotation
                          }
                        }
                      }
                    }
                  }
                  JOINT RightHandRing1
                  {
                    OFFSET -2.88569 -0.067952 -0.308858
                    CHANNELS 3 Zrotation Yrotation Xrotation
                    JOINT RightHandRing2
                    {
                      OFFSET -5.854198 -0.48613 -1.373731
                      CHANNELS 3 Zrotation Yrotation Xrotation
                      JOINT RightHandRing3
                      {
                        OFFSET -4.33881 -4e-06 -0.0
                        CHANNELS 3 Zrotation Yrotation Xrotation
                        JOINT RightHandRing4
                        {
                          OFFSET -2.654903 -4e-06 4e-06
                          CHANNELS 3 Zrotation Yrotation Xrotation
                          JOINT RightHandRingEnd
                          {
                            OFFSET -1.933568 0.077527 -5.2e-05
                            CHANNELS 3 Zrotation Yrotation Xrotation
                          }
                        }
                      }
                    }
                  }
                  JOINT RightHandPinky1
                  {
                    OFFSET -2.866425 -0.342796 -1.584145
                    CHANNELS 3 Zrotation Yrotation Xrotation
                    JOINT RightHandPinky2
                    {
                      OFFSET -5.091371 -1.332055 -1.772385
                      CHANNELS 3 Zrotation Yrotation Xrotation
                      JOINT RightHandPinky3
                      {
                        OFFSET -3.062664 -4e-06 1e-06
                        CHANNELS 3 Zrotation Yrotation Xrotation
                        JOINT RightHandPinky4
                        {
                          OFFSET -1.546529 4e-06 -2e-06
                          CHANNELS 3 Zrotation Yrotation Xrotation
                          JOINT RightHandPinkyEnd
                          {
                            OFFSET -1.945119 -0.157718 0.057211
                            CHANNELS 3 Zrotation Yrotation Xrotation
                          }
                        }
                      }
                    }
                  }
                }
              }
            }
          }
        }
      }
    }
    JOINT LeftLeg
    {
      OFFSET 10.043214 -8.434526 2.595655
      CHANNELS 3 Zrotation Yrotation Xrotation
      JOINT LeftShin
      {
        OFFSET -1e-06 -43.221752 -0.802913
        CHANNELS 3 Zrotation Yrotation Xrotation
        JOINT LeftFoot
        {
          OFFSET 1e-06 -42.155094 -3.481523
          CHANNELS 3 Zrotation Yrotation Xrotation
          JOINT LeftToeBase
          {
            OFFSET 0.0 -5.059472 13.231529
            CHANNELS 3 Zrotation Yrotation Xrotation
            JOINT LeftToeEnd
            {
              OFFSET -0.009607 -1.647619 6.513017
              CHANNELS 3 Zrotation Yrotation Xrotation
            }
          }
        }
      }
    }
    JOINT RightLeg
    {
      OFFSET -10.047278 -8.29526 2.620317
      CHANNELS 3 Zrotation Yrotation Xrotation
      JOINT RightShin
      {
        OFFSET 1e-06 -43.362206 -0.805556
        CHANNELS 3 Zrotation Yrotation Xrotation
        JOINT RightFoot
        {
          OFFSET 2e-06 -42.117393 -3.478398
          CHANNELS 3 Zrotation Yrotation Xrotation
          JOINT RightToeBase
          {
            OFFSET -0.0 -5.079609 13.284196
            CHANNELS 3 Zrotation Yrotation Xrotation
            JOINT RightToeEnd
            {
              OFFSET 0.009532 -1.634378 6.460591
              CHANNELS 3 Zrotation Yrotation Xrotation
            }
          }
        }
      }
    }
  }
}
MOTION
Frames: 4
Frame Time: 0.03333333333333333
0.846245 0.0 1.217119 0.0 2.348017 0.0 0.0 99.341278 0.0 -0.258378 -0.002151 -0.491834 2.332298 0.302587 -0.985415 0.582181 0.918055 -4.788272 -4.982277 -1.566161 5.134549 -9.67704 0.987724 -24.350874 -0.021868 -3.480238 -3.677483 6.053767 -11.620903 -29.548006 7.7e-05 -2.3e-05 5e-06 0.098149 0.076067 0.02298 0.625506 -3.514288 -10.070638 -0.464929 3.691892 -10.309836 -10.424867 -8.281272 12.017292 -63.87867 -1.268099 4.116369 -0.89225 -19.032333 -0.07555 -0.131731 3.349187 -2.233482 -5.882106 9.861286 0.702591 -10.936871 -0.360575 7.156206 1e-06 8.774825 -1e-06 -16.877213 18.287115 5.449483 -1.844033 2.498505 -2.507277 -10.1636 4.678945 4.621108 -20.976023 -3e-06 4e-06 -21.226286 2.451699 -3.594 -1e-06 -6e-06 0.0 -1.362682 2.240798 -0.746322 -21.334913 0.584909 3.008323 -13.821213 -2e-06 2e-06 -23.887171 -0.249077 -0.839482 -60.415565 2.600757 -2.16299 -0.294025 1.679687 0.833256 -14.218208 0.093215 1.300582 -34.212048 -0.287563 0.967171 -20.033215 0.964537 1.212843 0.0 0.0 -1e-06 -3.440389 0.788233 0.501656 -15.928185 -3.16731 2.999707 -6.338826 -1e-06 1e-06 -18.123444 3.648184 -4.905671 -4e-06 -0.0 -1e-06 -16.397366 14.614368 1.001159 -21.205154 -6.454021 -80.312874 -177.424988 53.809013 -173.676392 -33.810448 -6.164149 -13.607349 2.243543 -5.255037 -3.180158 14.282893 -0.826593 6.952503 -1e-06 -12.690609 -1e-06 15.474619 -16.623672 2.289979 1.665669 -1.955923 -2.8783 4.7278 -4.170587 4.993925 11.020529 4e-06 -1e-06 12.109055 -3.735716 -2.866786 -0.0 0.0 -1e-06 1.291988 -1.92855 -1.498089 14.800127 0.567468 3.865608 14.242573 -1.341736 -6.660661 19.631969 0.143928 -0.648248 48.852428 -1.719006 -5.838542 0.353028 -1.511152 -0.031941 20.222797 3.68431 2.31663 18.787273 5e-06 -1e-06 10.75163 -0.479868 1.397907 -0.0 0.0 -0.0 3.273808 0.305947 -0.58011 21.486814 11.830377 2.266134 8.162929 2e-06 -1e-06 18.399084 -3.798984 -4.940578 3e-06 -0.0 -1e-06 11.06584 15.60082 -1.682793 -0.036045 0.008602 5.285419 -14.04374 4.090316 -0.820163 1.560285 -2.210217 -0.230601 0.0 -0.0 2e-06 -11.690289 -30.558365 4.121976 0.053203 0.085375 3.977716 10.67213 -12.358942 -1.920701 -1.459397 1.0567 0.079698 0.0 1e-06 -1e-06 
0.839804 0.0 1.215399 0.0 2.398319 0.0 0.0 99.336365 0.0 -0.233778 -0.002152 -0.550574 2.367209 0.302579 -0.965448 0.595125 0.920456 -4.752625 -5.110842 -1.623644 5.045236 -10.127717 0.912362 -25.061531 0.079748 -3.51402 -3.682249 6.058222 -11.771516 -29.785782 7.7e-05 -2.2e-05 6e-06 0.099787 0.071599 0.019831 0.628849 -3.520161 -10.06669 -0.465635 3.691417 -10.312717 -10.535867 -8.414367 11.977728 -63.685551 -1.291712 3.930995 -0.882224 -18.947968 -0.082123 -0.137743 3.26073 -2.040209 -5.882108 9.861287 0.70259 -10.936875 -0.360576 7.156211 1e-06 8.774829 1e-06 -16.834162 18.272129 5.462116 -1.844032 2.498504 -2.507279 -10.163604 4.678946 4.621111 -20.976034 -5e-06 2e-06 -21.226295 2.451696 -3.594 0.0 -6e-06 -0.0 -1.362682 2.240798 -0.746324 -21.334923 0.584908 3.008325 -13.821218 -4e-06 2e-06 -23.887178 -0.24908 -0.839481 -60.335857 2.60099 -2.168352 -0.294024 1.679687 0.833256 -14.218214 0.093214 1.300581 -34.212063 -0.287565 0.967173 -20.033218 0.964537 1.212845 0.0 0.0 -1e-06 -3.44039 0.788233 0.501655 -15.928192 -3.167311 2.999709 -6.338829 -1e-06 0.0 -18.123453 3.648182 -4.905673 -3e-06 0.0 -1e-06 -16.638603 14.560256 0.738912 -21.641216 -6.673634 -80.273666 -177.326614 54.064205 -173.6082 -34.500175 -6.094816 -12.884912 2.243545 -5.25504 -3.18016 14.282897 -0.826595 6.952506 -2e-06 -12.690608 1e-06 15.286708 -16.607626 2.391247 1.665668 -1.955922 -2.8783 4.727801 -4.17059 4.993927 11.02053 4e-06 -1e-06 12.109056 -3.735717 -2.866787 1e-06 0.0 -2e-06 1.291985 -1.92855 -1.49809 14.800132 0.567468 3.86561 14.242577 -1.341736 -6.660662 19.631973 0.143927 -0.648246 48.63953 -1.7549 -5.80489 0.353028 -1.511151 -0.031939 20.222797 3.684312 2.316631 18.787279 5e-06 -1e-06 10.751631 -0.479869 1.397908 -0.0 0.0 0.0 3.273808 0.305948 -0.580111 21.48682 11.830381 2.266134 8.16293 2e-06 -0.0 18.39909 -3.798986 -4.940578 3e-06 -0.0 -0.0 11.060499 15.583637 -1.625077 -0.038945 -0.005097 5.253013 -14.041424 4.065424 -0.782918 1.561529 -2.211864 -0.278085 0.0 -0.0 2e-06 -11.773813 -30.666275 4.200713 0.052921 0.087505 4.050661 10.708849 -12.236255 -1.918702 -1.461406 1.068029 0.036523 0.0 0.0 -1e-06 
0.833333 0.0 1.22023 0.0 2.461975 0.0 0.0 99.327179 0.0 -0.207937 -0.002016 -0.587871 2.410033 0.310599 -0.9468 0.611928 0.913812 -4.714781 -5.224771 -1.668822 4.944262 -10.630507 0.778793 -25.825754 0.175573 -3.526993 -3.695814 6.092008 -11.90377 -30.121752 7.8e-05 -2.2e-05 6e-06 0.106684 0.07023 0.017236 0.64471 -3.523267 -10.076018 -0.468239 3.694959 -10.327588 -10.666035 -8.540507 11.950112 -63.533779 -1.349637 3.594626 -0.889655 -18.807238 -0.083561 -0.116917 3.187687 -1.82952 -5.882105 9.861283 0.70259 -10.93687 -0.360575 7.156206 1e-06 8.774823 -1e-06 -16.801935 18.257988 5.469244 -1.844031 2.498504 -2.507277 -10.163597 4.678943 4.621109 -20.976019 -4e-06 3e-06 -21.226282 2.451696 -3.593999 0.0 -6e-06 -0.0 -1.362682 2.240798 -0.746324 -21.334911 0.584909 3.008324 -13.821213 -3e-06 2e-06 -23.887167 -0.249079 -0.839481 -60.243259 2.598297 -2.178667 -0.294025 1.679687 0.833257 -14.218205 0.093215 1.300582 -34.212036 -0.287564 0.967173 -20.033211 0.964536 1.212844 0.0 -0.0 -0.0 -3.440388 0.788233 0.501656 -15.928185 -3.167309 2.999707 -6.338825 -0.0 2e-06 -18.123442 3.648183 -4.905669 -4e-06 -0.0 -3e-06 -16.898548 14.47259 0.506613 -22.12734 -6.87963 -80.205826 -177.134827 54.321877 -173.494965 -35.263329 -5.908954 -12.170835 2.243541 -5.255036 -3.180159 14.282885 -0.826594 6.952502 -1e-06 -12.690601 1e-06 15.133597 -16.597279 2.446374 1.665665 -1.955922 -2.878299 4.727797 -4.170587 4.993922 11.020524 3e-06 -2e-06 12.109052 -3.735715 -2.866786 0.0 0.0 -1e-06 1.291986 -1.92855 -1.498089 14.800122 0.567469 3.865606 14.242568 -1.341736 -6.660657 19.631958 0.143926 -0.648246 48.394249 -1.772998 -5.794387 0.353029 -1.51115 -0.03194 20.222784 3.684308 2.316629 18.787268 5e-06 -1e-06 10.751624 -0.479868 1.397905 -0.0 -0.0 0.0 3.273808 0.305945 -0.580111 21.486805 11.830372 2.266133 8.162923 1e-06 0.0 18.399076 -3.798984 -4.940575 3e-06 -0.0 -0.0 11.044248 15.550917 -1.640425 -0.042591 -0.012256 5.315805 -14.04022 4.014551 -0.792862 1.560202 -2.214371 -0.323604 0.0 1e-06 2e-06 -11.850612 -30.793417 4.217947 0.054345 0.085678 4.190332 10.744257 -12.093037 -2.006454 -1.463195 1.074923 -0.021056 0.0 0.0 -1e-06 
0.822367 0.0 1.232305 0.0 2.538034 0.0 0.0 99.317085 0.0 -0.184294 -0.001827 -0.609701 2.463632 0.32597 -0.924971 0.627414 0.882158 -4.673812 -5.317667 -1.698955 4.826812 -11.185995 0.626109 -26.595209 0.291877 -3.531446 -3.714338 6.146975 -12.043246 -30.525988 7.7e-05 -2.2e-05 3e-06 0.11406 0.069732 0.016199 0.661569 -3.526817 -10.098555 -0.470836 3.700931 -10.350818 -10.803676 -8.667097 11.932292 -63.449123 -1.430443 3.155353 -0.911002 -18.605854 -0.079663 -0.055238 3.111546 -1.672541 -5.882104 9.861284 0.70259 -10.93687 -0.360575 7.156206 0.0 8.774824 0.0 -16.791605 18.247774 5.448467 -1.844032 2.498504 -2.507278 -10.163598 4.678944 4.621108 -20.976021 -4e-06 3e-06 -21.226282 2.451696 -3.594 0.0 -6e-06 0.0 -1.362681 2.240798 -0.746323 -21.334906 0.584909 3.008323 -13.821213 -3e-06 3e-06 -23.887167 -0.249079 -0.839483 -60.141041 2.587331 -2.201334 -0.294025 1.679687 0.833256 -14.218206 0.093214 1.300581 -34.212036 -0.287564 0.967171 -20.033211 0.964537 1.212844 0.0 0.0 -1e-06 -3.440388 0.788233 0.501656 -15.928183 -3.16731 2.999707 -6.338825 -1e-06 2e-06 -18.123444 3.648181 -4.905669 -4e-06 -0.0 -2e-06 -17.195904 14.379188 0.313471 -22.581728 -7.093425 -80.040825 -176.76622 54.502277 -173.26413 -36.023937 -5.565021 -11.343218 2.243544 -5.255039 -3.18016 14.282897 -0.826594 6.952507 -3e-06 -12.690609 0.0 15.018258 -16.63224 2.469778 1.665667 -1.955921 -2.878299 4.727804 -4.170589 4.993927 11.020531 4e-06 -1e-06 12.109058 -3.735717 -2.866785 0.0 1e-06 0.0 1.291986 -1.92855 -1.49809 14.800139 0.567469 3.865611 14.24258 -1.341737 -6.660662 19.631977 0.143926 -0.648244 48.156261 -1.780007 -5.79862 0.353028 -1.51115 -0.03194 20.222801 3.684311 2.316633 18.787283 4e-06 2e-06 10.751634 -0.479869 1.397907 -1e-06 0.0 1e-06 3.273807 0.305948 -0.580111 21.486824 11.830381 2.266137 8.16293 2e-06 1e-06 18.399092 -3.798986 -4.940577 3e-06 0.0 -1e-06 11.02136 15.515656 -1.68328 -0.044237 -0.01326 5.398211 -14.054128 3.942867 -0.818965 1.557767 -2.224583 -0.365001 0.0 -0.0 2e-06 -11.919851 -30.933578 4.211936 0.057077 0.083645 4.341968 10.782967 -11.938972 -2.166046 -1.465169 1.081049 -0.081664 0.0 1e-06 -1e-06 
